<mxfile host="app.diagrams.net" agent="Mozilla/5.0 (Windows NT 10.0; Win64; x64) AppleWebKit/537.36 (KHTML, like Gecko) Chrome/135.0.0.0 Safari/537.36" version="26.2.14">
  <diagram name="Page-1" id="aFdsoIwqLJH-cdafrKiA">
    <mxGraphModel dx="872" dy="473" grid="1" gridSize="10" guides="1" tooltips="1" connect="1" arrows="1" fold="1" page="1" pageScale="1" pageWidth="850" pageHeight="1100" math="0" shadow="0">
      <root>
        <mxCell id="0" />
        <mxCell id="1" parent="0" />
        <mxCell id="Wp0PxfLAe2cL3ZSj69ka-1" value="&lt;font style=&quot;font-size: 14px;&quot;&gt;System Comparison - Shufuti vs SharApu&amp;nbsp;&lt;/font&gt;" style="text;html=1;align=center;verticalAlign=middle;whiteSpace=wrap;rounded=0;" vertex="1" parent="1">
          <mxGeometry x="50" y="20" width="310" height="80" as="geometry" />
        </mxCell>
        <mxCell id="Wp0PxfLAe2cL3ZSj69ka-2" value="Shufuti" style="text;html=1;align=center;verticalAlign=middle;whiteSpace=wrap;rounded=0;" vertex="1" parent="1">
          <mxGeometry x="70" y="130" width="60" height="30" as="geometry" />
        </mxCell>
        <mxCell id="Wp0PxfLAe2cL3ZSj69ka-3" value="SharApu" style="text;html=1;align=center;verticalAlign=middle;whiteSpace=wrap;rounded=0;" vertex="1" parent="1">
          <mxGeometry x="70" y="350" width="60" height="30" as="geometry" />
        </mxCell>
        <mxCell id="Wp0PxfLAe2cL3ZSj69ka-4" value="Most popular/latest jobs are being shown." style="rounded=1;whiteSpace=wrap;html=1;" vertex="1" parent="1">
          <mxGeometry x="220" y="200" width="170" height="80" as="geometry" />
        </mxCell>
        <mxCell id="Wp0PxfLAe2cL3ZSj69ka-5" value="" style="endArrow=classic;html=1;rounded=0;entryX=0.5;entryY=0;entryDx=0;entryDy=0;exitX=1;exitY=0.25;exitDx=0;exitDy=0;" edge="1" parent="1" source="Wp0PxfLAe2cL3ZSj69ka-2" target="Wp0PxfLAe2cL3ZSj69ka-4">
          <mxGeometry width="50" height="50" relative="1" as="geometry">
            <mxPoint x="220" y="170" as="sourcePoint" />
            <mxPoint x="270" y="120" as="targetPoint" />
          </mxGeometry>
        </mxCell>
        <mxCell id="Wp0PxfLAe2cL3ZSj69ka-6" value="" style="endArrow=classic;html=1;rounded=0;exitX=1;exitY=0.25;exitDx=0;exitDy=0;" edge="1" parent="1" source="Wp0PxfLAe2cL3ZSj69ka-3">
          <mxGeometry width="50" height="50" relative="1" as="geometry">
            <mxPoint x="250" y="330" as="sourcePoint" />
            <mxPoint x="300" y="280" as="targetPoint" />
          </mxGeometry>
        </mxCell>
        <mxCell id="Wp0PxfLAe2cL3ZSj69ka-9" value="&lt;h1 style=&quot;margin-top: 0px;&quot;&gt;Search For A Job Page&lt;/h1&gt;&lt;p&gt;This page is for all the users. The most popular or latest jobs are being shown. Users can also select from popular tags. They can select Job Types. Users can search for jobs using free keywords. Jobs can also be searched using categories.&lt;/p&gt;" style="text;html=1;whiteSpace=wrap;overflow=hidden;rounded=0;" vertex="1" parent="1">
          <mxGeometry x="380" y="30" width="440" height="120" as="geometry" />
        </mxCell>
      </root>
    </mxGraphModel>
  </diagram>
</mxfile>
